PathFileType	4	(X/Y/Z)	13_2_60_p0_0-352.trc
DataRate	CameraRate	NumFrames	NumMarkers	Units	OrigDataRate	OrigDataStartFrame	OrigNumFrames
59.0	59.0	7	27	m	59.0	0	353
Frame#	Time	RHip			RKnee			RAnkle			RBigToe			RSmallToe			RHeel			LHip			LKnee			LAnkle			LBigToe			LSmallToe			LHeel			Neck			Head			Nose			RShoulder			RElbow			RWrist			RThumb			RIndex			RPinky			LShoulder			LElbow			LWrist			LThumb			LIndex			LPinky			
		X1	Y1	Z1	X2	Y2	Z2	X3	Y3	Z3	X4	Y4	Z4	X5	Y5	Z5	X6	Y6	Z6	X7	Y7	Z7	X8	Y8	Z8	X9	Y9	Z9	X10	Y10	Z10	X11	Y11	Z11	X12	Y12	Z12	X13	Y13	Z13	X14	Y14	Z14	X15	Y15	Z15	X16	Y16	Z16	X17	Y17	Z17	X18	Y18	Z18	X19	Y19	Z19	X20	Y20	Z20	X21	Y21	Z21	X22	Y22	Z22	X23	Y23	Z23	X24	Y24	Z24	X25	Y25	Z25	X26	Y26	Z26	X27	Y27	Z27	
0	0.0	0.23720336716375695	0.8237372464657471	0.6579735519100384	0.24833595824571628	0.9933132957204651	1.0367307054721273	0.25671651332691153	1.3323683970984266	1.3908426180278683	0.259059449392091	1.0990605355007363	1.452743327628161	0.3042762498194127	1.1540264046736082	1.453060158328321	0.24167991832354319	1.4065920249354267	1.4341888164917256	0.05843187494575356	0.8801960239973894	0.6508469669983483	0.06239633496949055	1.0654621004385787	1.0402925856811118	0.08316031527080205	1.272696809577593	1.3928713405188278	0.0874317004667304	1.1137279152644295	1.451506346423073	0.03502734203332667	1.1364198613525887	1.4339316182260515	0.11077711438372898	1.356482151703976	1.4229140093026857	0.149151374460827	0.6998658790870615	0.11787124361291162	0.13415338457303133	0.5268330792705743	-0.07224655871048356	0.14032121126760838	0.48997084792907536	0.06977654776874773	0.3072231825096235	0.6841860546708681	0.21265782652978216	0.35644727967483086	0.6994759682251379	0.4733873242441753	0.1866495774204545	0.5742292993655191	0.5361986482622457	0.09288067140262295	0.5553376620950081	0.5233680747853756	0.07880820100771174	0.5822537448272735	0.5541677368976947	0.09797293358177205	0.5844240035217562	0.5998040886917057	0.017195357939335718	0.7714199602926464	0.16510297579429373	-0.02875135655176012	0.8767346453750472	0.41601163013984815	0.05309352209898462	0.6463993497905709	0.5474144044509189	0.088495124912312	0.5717797997897173	0.5533356914483043	0.09896487867792618	0.5572744980743953	0.5682222268749576	0.09846873500550704	0.5851816981927392	0.6241926095834918
1	0.01694915254237288	0.2373456941457063	0.8243621061854394	0.6579704524770603	0.24785014801113534	0.9955122095315497	1.040651084530634	0.2532521214778811	1.3154422825183607	1.3884796570163083	0.2561779985449607	1.0848471585995527	1.449916500965363	0.30039528465215465	1.138456892852809	1.4504330777234749	0.24181515478360938	1.4064711594637118	1.4338641177429114	0.05840506554720377	0.8799288682450351	0.6508309426247515	0.06272168718989478	1.0658370826369739	1.0441842743143634	0.08311826337312267	1.2733043534486377	1.3931092548561799	0.08745041826247403	1.113665380008874	1.451415042202356	0.03514158826293032	1.1375139545791304	1.4342158802346612	0.11042446659159329	1.360925527573737	1.4282323855675203	0.14921716238475244	0.699736042435618	0.1178326780971345	0.13829084883484327	0.515052956744868	-0.06852867841860348	0.14015421908863088	0.48903353575912006	0.06646099679864242	0.30372588669587597	0.6724136234481426	0.2150806307012531	0.3598418154442531	0.6847166055692601	0.4710799100734058	0.18654801131274032	0.5727478286549472	0.5291384786560558	0.08498639940088358	0.5483629242005489	0.5050765746827821	0.07097174551130445	0.5762378647139662	0.5440028325738879	0.09107014803876652	0.5818993360784553	0.5964020242598449	0.017359223704129057	0.7710148946214901	0.1650645252863377	-0.024418503152509766	0.8800006406294392	0.4149132609879808	0.05308000628530175	0.6466002750440542	0.5475081873661876	0.08580774465568466	0.558551843909702	0.546894292859881	0.09804967306242922	0.5540620010004512	0.5612179693288665	0.09835530340952392	0.5851681975517181	0.6234908799892541
2	0.03389830508474576	0.23831852903936387	0.8233728089083366	0.6543920441021316	0.24753434172759356	0.995640644329483	1.0412658976434985	0.25322506677985457	1.3156478784557077	1.3885680127255593	0.25605709104973295	1.0845587873687228	1.4500397217054772	0.30012969590657274	1.1394266577820682	1.4466580183863575	0.23820970793768959	1.3899517412813438	1.4316123104260752	0.0584312677498351	0.8806096040856634	0.6507964666117365	0.06267244778113557	1.0661941797804637	1.0441782860069806	0.08318072457120641	1.2729845718177615	1.3929370758151696	0.08756214461479514	1.1137648688368744	1.4514319632567831	0.035236218276089186	1.137450971580033	1.4341807702467204	0.11036490491714747	1.360107353643159	1.4280249442666464	0.1494607136751006	0.7004521730696858	0.12106417139210296	0.13831218773986023	0.5150460236835736	-0.06863615972579352	0.1403263823975015	0.49003224297226167	0.06963307039386601	0.3064570058854364	0.6812675657190106	0.2056710131885473	0.3586772309620656	0.6828672194131722	0.4708735673825738	0.18156963766287026	0.5619315410403809	0.5131132218766253	0.08314930045083681	0.5647028701297728	0.4789014209716321	0.07238278251230545	0.5779416667054555	0.5259197634085558	0.08976157021840793	0.5799451728085567	0.5849225135184127	0.01738538260180435	0.7712169203438947	0.16516214148329772	-0.017192365149545058	0.9012330017556497	0.416426578782848	0.04960315240319767	0.6440969218516858	0.5487396568208335	0.0945094130396082	0.5297174538555541	0.5428473744807605	0.09348628827032988	0.513091820453003	0.5668765998125452	0.09762111106565105	0.5714871471704506	0.6202147987609952
3	0.05084745762711865	0.24501811894256822	0.8232895748181422	0.6577916236069342	0.24750295306877185	0.9953945485364887	1.0409373249011769	0.25317737405913754	1.3156936708622846	1.3886057354546544	0.2570084995798956	1.0825578277727572	1.4457834849455453	0.3051355557704674	1.1423616836113022	1.4510908937183755	0.23831440999788953	1.3898341994336811	1.4312890085789778	0.058422611669096264	0.8803569350683794	0.6507189637726631	0.06272570047162428	1.0661973737640345	1.0440191297128603	0.08304353417411829	1.2730543636483804	1.393078541401373	0.09246623474078908	1.0961676053636742	1.4478468284450405	0.03484517279924139	1.1364464170894806	1.4341236075851	0.11028585369364842	1.3614218621725667	1.4286183098475387	0.14924162812961184	0.6994678998094153	0.1179017860336415	0.13839068785320252	0.5151713964103465	-0.06862805563758248	0.14031203990168853	0.4900435637914043	0.06967344063410016	0.30698472581229963	0.6833217101152934	0.20876944477075213	0.35785102433523086	0.6676313598552112	0.4693185969313832	0.17202195254002076	0.5843392728744681	0.5026367963803989	0.09501754107859199	0.5143081715118084	0.47444089611026	0.06852208071907602	0.5420526258862497	0.503276862164522	0.07049374742406275	0.6130394796319498	0.570583938474538	0.020432170588340536	0.7446874173385439	0.17100122500041037	-0.013496562716232901	0.903250702579041	0.41279703289288383	0.04031119751313037	0.6552930155051736	0.5422831749820384	0.0824215024058935	0.522724952614403	0.5258727388011508	0.08651039486805485	0.5525124877968228	0.5576185193455984	0.08306246919815213	0.6098295797827559	0.6170363319462409
4	0.06779661016949153	0.23739760592650674	0.82375100823832	0.6509240152723808	0.24724439347472493	0.9958812713465421	1.0370821683489837	0.25316227258097346	1.3155021201050794	1.3885468587798897	0.2570113335112941	1.082749676119307	1.4457915915871742	0.30527571653714697	1.1420058715714139	1.4509137278910549	0.24199980284008063	1.4069024658865374	1.4337985521734353	0.05811535956616785	0.8793282119659902	0.6466742297710278	0.06557764641651746	1.0816033471369355	1.0448986755542629	0.08293307879935218	1.2729048513268952	1.393231212171689	0.0925327947607233	1.0959029440231358	1.4477974952469987	0.04048496693331928	1.1199360145687085	1.4307804103057937	0.1098059414949444	1.3614771801734646	1.429175569355547	0.14921915534320038	0.6990925026508513	0.1180529947948812	0.1384047662939899	0.5150253628970399	-0.06858636386283921	0.13651137127758503	0.48860695627401396	0.070224594665637	0.3029942544035707	0.6693652237741425	0.20809719256957743	0.3569056198857393	0.6636181095321273	0.46164970164981534	0.18410757159997823	0.5397358139538023	0.48861784246299367	0.09378632373753927	0.5078637256013625	0.4610195514401518	0.06677633603534028	0.501900415951059	0.48676723027778757	0.09070929193002594	0.5460287196748647	0.5585976359389735	0.022771388667217847	0.757616192919217	0.16833618631193503	-0.008360294071075214	0.9080502204419196	0.4120923929891965	0.034597219449487626	0.668396518039322	0.5395577159735548	0.06976876079366488	0.5706950338979383	0.51699838119412	0.07953450146577982	0.5919331551406428	0.5483604388786515	0.07210623727016524	0.6307063174683495	0.6037722726951642
5	0.0847457627118644	0.24113869962179726	0.8393249144286813	0.6500359389223674	0.2481317290977426	0.9939853232133887	1.0326924134638784	0.2531646019190562	1.3151348146293038	1.3885587899676415	0.2569410311626738	1.0821331884523684	1.4458039955317479	0.3004899616484135	1.1385717274298195	1.4504986021157105	0.24199808203651035	1.4070733697710265	1.4342058784511378	0.05251809748952556	0.8933314084723067	0.6376683331636909	0.06555768662923434	1.0817183038137703	1.044902557856424	0.08281806670130011	1.2724698996204293	1.3932085550457578	0.09252409738027034	1.095904620689306	1.447741438450606	0.03503804735677455	1.1364468077741916	1.434035455271767	0.1093659787605493	1.3604108581764065	1.429256531547425	0.15605064609188057	0.7130083893022268	0.11441493382648975	0.13839890367394117	0.5150857867939074	-0.06862897683722544	0.13648188056641306	0.4885926233938376	0.07017793414952242	0.30318237826502153	0.6706309935989716	0.2078123994440985	0.35291233078932066	0.6616763750808571	0.4581156192621345	0.18315213032789923	0.5356003591065944	0.47440789526412197	0.08618273494502125	0.48476574644384185	0.44522062570137927	0.0656486660742629	0.4749827771159766	0.47475859698908657	0.0847111548502795	0.48849388011445205	0.5359952875925093	0.02287422306650516	0.7576691502578279	0.16809827676701375	-0.005032043708914342	0.9081648059118967	0.40571006660924613	0.051085646872196605	0.6618809243836571	0.552098794892347	0.07775806791162523	0.5486393694214355	0.5353823526805016	0.0819593619997403	0.5724469178259982	0.563529748700124	0.07387481402262822	0.633813462666609	0.6156581201925149
6	0.1016949152542373	0.2402483826085249	0.8386720448312657	0.6547774881340418	0.24792560264319263	0.9938576144724471	1.0328388101214765	0.25653925942740086	1.3328388511020823	1.3911195686533853	0.2570227021561089	1.0828645036764282	1.4458618878697282	0.30508386383256114	1.141018378328005	1.4508065170075235	0.2430542592002373	1.411364522540943	1.4386421821580164	0.057765853847568195	0.8802827263989964	0.6425288018261854	0.06650666225931721	1.0798890763073266	1.0409906734221135	0.08172774451919913	1.2753393933444381	1.398380461560296	0.09266608452568695	1.0952248836642595	1.4476409992734771	0.03955169239178897	1.1212973466600809	1.4348830894342082	0.10906766635818224	1.3638211570161387	1.4259510149712888	0.15605895204242576	0.7135824685697966	0.11781515750103863	0.1381425516494259	0.5130337322549037	-0.07166111969828876	0.13640005227282437	0.4885797107352602	0.07030962571699763	0.3031942102608431	0.6704118386413553	0.20776619977093466	0.34442938741210727	0.6446451351159598	0.4492110584974521	0.17300962963824287	0.5061107676361836	0.46377366450372537	0.08164905481154129	0.43829344045323104	0.41445969447348946	0.04355284755911835	0.4154976136518835	0.4445915841610316	0.0660083678691062	0.44370944616349295	0.5031083729169017	0.02788091095994487	0.7443678210263066	0.17128947286535623	-0.008629970269302263	0.9072288304958651	0.40615480440654445	0.05489433300640646	0.675390329040508	0.5486037257911031	0.07858934458301102	0.5710702501497056	0.5589223061162857	0.08541818875461545	0.5686408821058704	0.587168274557135	0.07391930426277481	0.6340374393923783	0.6161126759367657
